<?xml version="1.0" encoding="utf-8"?>
<!-- Generator: Adobe Illustrator 20.0.0, SVG Export Plug-In . SVG Version: 6.00 Build 0)  -->
<svg version="1.1" id="Layer_1" xmlns="http://www.w3.org/2000/svg" xmlns:xlink="http://www.w3.org/1999/xlink" x="0px" y="0px"
	 viewBox="0 0 400 89.7" style="enable-background:new 0 0 400 89.7;" xml:space="preserve">
<style type="text/css">
	.st0{fill:#FFFFFF;}
</style>
<g>
	<path class="st0" d="M16.2,86c0,0-22.9-35.8,0.4-81.2c0,0,45.6,0.5,69.5,40.6C86.1,45.4,64.2,85,16.2,86z M24.9,13.7
		C10.2,45.7,37,64.7,37,64.7C30.7,71.2,20.1,75,20.1,75l0.4,1.1c0,0,36.2-8.2,39.6-38l0,0c4.9,1.8,9.8,4.5,14.5,9.6l0.5-0.7
		C55.7,19.7,24.7,31.5,24.7,31.5s-1.4-9.1,1.2-17.7L24.9,13.7z"/>
	<g>
		<path class="st0" d="M126,29.9h-11.8c-0.9,0-1.5,0.7-1.5,1.5v32.5c0,0.9,0.7,1.5,1.5,1.5h2.4c0.9,0,1.5-0.7,1.5-1.5V53.4h7.2
			c8.5,0,14.2-4.8,14.2-12C139.6,34.4,134.3,29.9,126,29.9z M118.2,35.2h7.7c2.5,0,8.3,0.6,8.3,6.4c0,3.9-3.4,6.4-8.6,6.4h-7.4V35.2
			z"/>
		<path class="st0" d="M176,51.1c5.3-1.5,8.3-5.2,8.3-10.4c0-2.7-1.1-5.3-2.9-7.1c-2.4-2.4-6-3.7-10.2-3.7h-13.7
			c-0.9,0-1.6,0.7-1.6,1.5v32.5c0,0.9,0.7,1.5,1.6,1.5h2.4c0.9,0,1.5-0.7,1.5-1.5V52h8.3l9.9,12.9c0.3,0.4,0.7,0.6,1.2,0.6h3.1
			c0.6,0,1.1-0.3,1.4-0.9c0.3-0.5,0.2-1.2-0.2-1.6L176,51.1z M161.5,35.2h9.6c2.3,0,7.8,0.5,7.8,5.6c0,4.3-4.3,5.9-7.9,5.9h-9.4
			V35.2z"/>
		<path class="st0" d="M226.8,60.2h-19.4v-10h17.1c0.9,0,1.5-0.7,1.5-1.6v-2.2c0-0.9-0.7-1.5-1.5-1.5h-17.1v-9.7h19.2
			c0.9,0,1.5-0.7,1.5-1.5v-2.2c0-0.9-0.7-1.5-1.5-1.5h-23.1c-0.9,0-1.5,0.7-1.5,1.5v32.5c0,0.9,0.7,1.5,1.5,1.5h23.4
			c0.9,0,1.5-0.7,1.5-1.5v-2.2C228.3,60.9,227.7,60.2,226.8,60.2z"/>
		<path class="st0" d="M277.5,29.9h-2.3c-0.5,0-1,0.3-1.3,0.7l-11.8,17.3l-11.8-17.3c-0.3-0.4-0.8-0.7-1.3-0.7h-2.3
			c-0.9,0-1.5,0.7-1.5,1.5v32.5c0,0.9,0.7,1.5,1.5,1.5h2.3c0.9,0,1.5-0.7,1.5-1.5V40.7l10,14.6c0.6,0.8,2.2,0.8,2.7,0l10-14.6v23.3
			c0,0.9,0.7,1.5,1.5,1.5h2.4c0.9,0,1.6-0.7,1.6-1.5V31.4C279.1,30.6,278.4,29.9,277.5,29.9z"/>
		<path class="st0" d="M302.2,29.9h-2.4c-0.9,0-1.6,0.7-1.6,1.5v32.5c0,0.9,0.7,1.5,1.6,1.5h2.4c0.9,0,1.6-0.7,1.6-1.5V31.4
			C303.8,30.6,303.1,29.9,302.2,29.9z"/>
		<path class="st0" d="M347.9,60.2h-19.4v-10h17.1c0.9,0,1.5-0.7,1.5-1.6v-2.2c0-0.9-0.7-1.5-1.5-1.5h-17.1v-9.7h19.2
			c0.9,0,1.5-0.7,1.5-1.5v-2.2c0-0.9-0.7-1.5-1.5-1.5h-23.1c-0.9,0-1.6,0.7-1.6,1.5v32.5c0,0.9,0.7,1.5,1.6,1.5h23.4
			c0.9,0,1.5-0.7,1.5-1.5v-2.2C349.5,60.9,348.8,60.2,347.9,60.2z"/>
		<path class="st0" d="M395.7,63l-9.2-11.9c5.3-1.5,8.3-5.2,8.3-10.4c0-2.7-1.1-5.3-2.9-7.1c-2.4-2.4-6-3.7-10.2-3.7H368
			c-0.9,0-1.5,0.7-1.5,1.5v32.5c0,0.9,0.7,1.5,1.5,1.5h2.4c0.9,0,1.6-0.7,1.6-1.5V52h8.3l9.9,12.9c0.3,0.4,0.7,0.6,1.2,0.6h3.1
			c0.6,0,1.1-0.3,1.4-0.9C396.1,64.1,396,63.5,395.7,63z M371.9,35.2h9.6c2.3,0,7.8,0.5,7.8,5.6c0,4.3-4.3,5.9-7.9,5.9h-9.4V35.2z"
			/>
	</g>
</g>
</svg>
