<?xml version="1.0" encoding="utf-8"?>
<!-- Generator: Adobe Illustrator 20.1.0, SVG Export Plug-In . SVG Version: 6.00 Build 0)  -->
<svg version="1.1" id="Layer_1" xmlns="http://www.w3.org/2000/svg" xmlns:xlink="http://www.w3.org/1999/xlink" x="0px" y="0px"
	 viewBox="0 0 2580 1329.5" style="enable-background:new 0 0 2580 1329.5;" xml:space="preserve">
<style type="text/css">
	.st0{fill:#B2D0DF;}
	.st1{fill:#87090C;}
	.st2{fill:#FFFFFF;}
	.st3{fill:#2C357A;}
	.st4{fill:#3C4221;}
	.st5{fill:#2E3A20;}
	.st6{fill:#F1F1F2;}
	.st7{fill:#687C40;}
	.st8{fill:#D0D2D3;}
	.st9{fill:#CACAC9;}
	.st10{fill:#BBBDBF;}
	.st11{fill:#E6E7E8;}
	.st12{fill:#A6A8AB;}
	.st13{fill:#D0D1D1;}
	.st14{fill:#BDBDBE;}
	.st15{fill:#DADBDB;}
	.st16{fill:#C6C7C8;}
	.st17{fill:#FFD154;}
	.st18{fill:#F2F2F2;}
	.st19{fill:#00B5FF;}
	.st20{fill:#CEEEF4;}
	.st21{fill:#E6E6E6;}
	.st22{fill:#B3B3B3;}
	.st23{fill:#B4CFD3;}
	.st24{fill:#4D4D4D;}
</style>
<g id="Layer_1_1_">
	<path class="st0" d="M-6.6-11.9H2582v1082.4H-6.6V-11.9z"/>
	<g id="flag">
		<path class="st1" d="M1198.1,474.3h77.4v51.9h-77.4V474.3L1198.1,474.3z"/>
		<path class="st2" d="M1198.1,478.8h48.2v3.7h-48.2V478.8z M1198.1,486.8h48.2v3.7h-48.2V486.8z M1198.1,502.4h77.3v3.7h-77.3
			V502.4z M1198.1,510.5h77.3v3.7h-77.3V510.5z M1198.1,518.4h77.3v3.7h-77.3V518.4z M1198.1,494.7h48.2v3.7h-48.2V494.7z"/>
		<path class="st3" d="M1246.2,474.3h29.4v24.4h-29.4V474.3z"/>
	</g>
	<path class="st4" d="M2045.4,939.5h-135.1c-8,0-14.6-6.5-14.6-14.6V875c0-8,6.5-14.6,14.6-14.6h135.1c8,0,14.6,6.5,14.6,14.6v49.9
		C2060,933,2053.5,939.5,2045.4,939.5z"/>
	<path class="st5" d="M636.9,915.9h-73.2c-8,0-14.6-6.5-14.6-14.6v-60.7c0-8,6.5-14.6,14.6-14.6h73.2c8,0,14.6,6.5,14.6,14.6v60.7
		C651.5,909.4,645,915.9,636.9,915.9z"/>
	<path class="st4" d="M668.6,1018.3H506.3c-8,0-14.6-6.5-14.6-14.6V943c0-8,6.5-14.6,14.6-14.6h162.3c8,0,14.6,6.5,14.6,14.6v60.7
		C683.2,1011.8,676.7,1018.3,668.6,1018.3z"/>
	<path class="st4" d="M649,951.7H513.5c-8,0-14.6-6.5-14.6-14.6v-37.6c0-8,6.5-14.6,14.6-14.6H649c8,0,14.6,6.5,14.6,14.6v37.6
		C663.6,945.2,657.1,951.7,649,951.7z"/>
	<path class="st5" d="M63.2,915.9H-10c-8,0-14.6-6.5-14.6-14.6v-60.7c0-8,6.5-14.6,14.6-14.6h73.2c8,0,14.6,6.5,14.6,14.6v60.7
		C77.7,909.4,71.2,915.9,63.2,915.9z"/>
	<path class="st4" d="M120.3,1018.3H-42c-8,0-14.6-6.5-14.6-14.6V943c0-8,6.5-14.6,14.6-14.6h162.3c8,0,14.6,6.5,14.6,14.6v60.7
		C134.8,1011.8,128.3,1018.3,120.3,1018.3z"/>
	<path class="st4" d="M100.7,951.7H-34.8c-8,0-14.6-6.5-14.6-14.6v-37.6c0-8,6.5-14.6,14.6-14.6h135.5c8,0,14.6,6.5,14.6,14.6v37.6
		C115.3,945.2,108.7,951.7,100.7,951.7z"/>
	<path class="st5" d="M2042.2,897.2h-135.1c-8,0-14.6-6.5-14.6-14.6v-77.2c0-8,6.5-14.6,14.6-14.6h135.1c8,0,14.6,6.5,14.6,14.6
		v77.3C2056.7,890.7,2050.2,897.2,2042.2,897.2L2042.2,897.2z M2079.7,1018.3h-197.3c-8,0-14.6-6.5-14.6-14.6v-77.2
		c0-8,6.5-14.6,14.6-14.6h197.3c8,0,14.6,6.5,14.6,14.6v77.2C2094.2,1011.8,2087.7,1018.3,2079.7,1018.3z"/>
	<path class="st6" d="M1275.7,474.7l-1.4-0.3l1.4,141l3.5-1.2L1275.7,474.7z"/>
	<path class="st7" d="M-19.3,1010.7h2611.1v323.6H-19.3V1010.7L-19.3,1010.7z"/>
	<path class="st8" d="M647.9,787.3H1907v255.9H647.9V787.3z"/>
	<path class="st9" d="M643.9,720.9h1264.9v50.8H643.9V720.9z"/>
	<path class="st10" d="M629.4,766.8l2.8,11.8l15.7,8.7h1261l15.6-8.7l3-11.8H629.4z"/>
	<path class="st8" d="M1059.8,651.3h440.8v63.2h-440.8V651.3z"/>
	<path class="st11" d="M1280.9,610.5l-240.8,97.2l3.4,10.3l17.5,28.4l437.1,1.3l19.1-29.7l5.8-12.7L1280.9,610.5z"/>
	<path class="st8" d="M1050.8,732l11.7,27.4h437.7l11.7-27.4H1050.8L1050.8,732z"/>
	<path class="st6" d="M1088.4,709.1h382.9l-192.1-71.5L1088.4,709.1z"/>
	<path class="st12" d="M1281.3,761.1h-213.9l43.9,43.1h338.6l43.9-43.1H1281.3z"/>
	<path class="st10" d="M1112.5,802.3h337.3v259.8h-337.3V802.3z"/>
	<path class="st13" d="M1140.7,797.6l-13.7,0.7l-9.8-0.7l-3.5,264.4h30.4L1140.7,797.6z"/>
	<path class="st14" d="M1143.9,803.1h-33.5c-3,0-5.4-2.4-5.4-5.4v-8.9h41.9c1.4,0,2.4,1.1,2.4,2.4v6.5
		C1149.3,800.7,1146.9,803.1,1143.9,803.1z"/>
	<path class="st13" d="M1452,797.6l-13.7,0.7l-9.8-0.7l-3.6,264.4h30.5L1452,797.6z"/>
	<path class="st14" d="M1455.2,803.1h-33.5c-3,0-5.4-2.4-5.4-5.4v-6.5c0-1.4,1.1-2.4,2.4-2.4h41.9v8.9
		C1460.6,800.7,1458.1,803.1,1455.2,803.1z"/>
	<path class="st15" d="M1119.2,783.3l-13.7,0.6l-9.8-0.6l-3.5,264.3h30.4L1119.2,783.3z"/>
	<path class="st16" d="M1122.4,788.8h-33.5c-3,0-5.4-2.4-5.4-5.4v-8.9h41.9c1.4,0,2.4,1.1,2.4,2.4v6.5
		C1127.8,786.3,1125.4,788.8,1122.4,788.8z"/>
	<path class="st15" d="M1470.8,783.3l-13.6,0.6l-9.8-0.6l-3.6,264.3h30.4L1470.8,783.3z"/>
	<path class="st16" d="M1474.1,788.8h-33.5c-3,0-5.4-2.4-5.4-5.4v-6.5c0-1.4,1.1-2.4,2.4-2.4h41.9v8.9
		C1479.4,786.3,1477.1,788.8,1474.1,788.8z"/>
	<path class="st11" d="M1096.7,768.2l-13.6,0.6l-9.8-0.6l-3.6,264.3h30.5L1096.7,768.2z"/>
	<path class="st8" d="M1100,773.7h-33.5c-3,0-5.4-2.4-5.4-5.4v-8.9h44.2v8.9C1105.4,771.2,1102.9,773.7,1100,773.7L1100,773.7z"/>
	<path class="st11" d="M1224.7,768.2l-13.7,0.6l-9.8-0.6l-3.6,264.3h30L1224.7,768.2z"/>
	<path class="st8" d="M1227.9,773.7h-33.5c-3,0-5.4-2.4-5.4-5.4v-8.9h44.2v8.9C1233.3,771.2,1230.9,773.7,1227.9,773.7L1227.9,773.7
		z"/>
	<path class="st11" d="M1361.9,768.2l-13.7,0.6l-9.7-0.6l-3.6,264.3h30.9L1361.9,768.2L1361.9,768.2z"/>
	<path class="st8" d="M1365.2,773.7h-33.5c-3,0-5.4-2.4-5.4-5.4v-8.9h44.2v8.9C1370.5,771.2,1368.2,773.7,1365.2,773.7L1365.2,773.7
		z"/>
	<path class="st11" d="M1490.8,768.2l-13.6,0.6l-9.8-0.6l-3.6,264.3h30.9L1490.8,768.2z"/>
	<path class="st8" d="M1494.1,773.7h-33.5c-3,0-5.4-2.4-5.4-5.4v-8.9h44.2v8.9C1499.5,771.2,1497.1,773.7,1494.1,773.7L1494.1,773.7
		z"/>
	<circle class="st17" cx="1275" cy="466" r="8.5"/>
	<path class="st10" d="M1280.1,459.2c1.1,1.5,1.8,3.2,1.8,5.2c0,4.7-3.8,8.5-8.5,8.5c-1.9,0-3.7-0.6-5.2-1.8c1.6,2,4,3.4,6.8,3.4
		c4.7,0,8.5-3.8,8.5-8.5C1283.5,463.2,1282.1,460.8,1280.1,459.2L1280.1,459.2z"/>
	<g id="cloud-4">
		<path class="st11" d="M951,594.7H644.2c-16.7,0-30.3-13.5-30.3-30.3c0-16.7,13.5-30.3,30.3-30.3H951c16.7,0,30.3,13.5,30.3,30.3
			C981.3,581.1,967.8,594.7,951,594.7z"/>
	</g>
	<g id="cloud-8">
		<path d="M2417.7,677.9H2254c-16.7,0-30.3-13.5-30.3-30.3c0-16.7,13.5-30.3,30.3-30.3h163.7c16.7,0,30.3,13.5,30.3,30.3
			C2448.1,664.4,2434.6,677.9,2417.7,677.9z"/>
	</g>
	<g id="cloud-7">
		<path class="st6" d="M2057.3,465.9h-163.7c-16.7,0-30.3-13.5-30.3-30.3c0-16.7,13.5-30.3,30.3-30.3h163.7
			c16.7,0,30.3,13.5,30.3,30.3S2074,465.9,2057.3,465.9z"/>
	</g>
	<g id="cloud-6">
		<path class="st2" d="M1800.3,361.5h-163.7c-16.7,0-30.3-13.5-30.3-30.3c0-16.7,13.5-30.3,30.3-30.3h163.7
			c16.7,0,30.3,13.5,30.3,30.3C1830.6,347.9,1817,361.5,1800.3,361.5z"/>
	</g>
	<g id="cloud-5">
		<path class="st2" d="M1841.5,527.5h-362.9c-16.7,0-30.3-13.5-30.3-30.3c0-16.7,13.5-30.3,30.3-30.3h362.9
			c16.7,0,30.3,13.5,30.3,30.3C1871.7,514,1858.2,527.5,1841.5,527.5z"/>
	</g>
	<g id="cloud-9">
		<path class="st2" d="M2777.1,481.8h-362.9c-16.7,0-30.3-13.5-30.3-30.3c0-16.7,13.5-30.3,30.3-30.3h362.9
			c16.7,0,30.3,13.5,30.3,30.3C2807.4,468.2,2793.8,481.8,2777.1,481.8z"/>
	</g>
	<path class="st4" d="M2630.9,939.5h-135.1c-8,0-14.6-6.5-14.6-14.6V875c0-8,6.5-14.6,14.6-14.6h135.1c8,0,14.6,6.5,14.6,14.6v49.9
		C2645.4,933,2638.9,939.5,2630.9,939.5z"/>
	<path class="st5" d="M2611.9,884.8h-135.1c-8,0-14.6-6.5-14.6-14.6V793c0-8,6.5-14.6,14.6-14.6h135.1c8,0,14.6,6.5,14.6,14.6v77.2
		C2626.5,878.3,2620,884.8,2611.9,884.8z M2654.1,1018.3h-197.3c-8,0-14.6-6.5-14.6-14.6v-77.2c0-8,6.5-14.6,14.6-14.6h197.3
		c8,0,14.6,6.5,14.6,14.6v77.2C2668.6,1011.8,2662.1,1018.3,2654.1,1018.3z"/>
	<path class="st10" d="M1823.9,833.2h33.2v66.9h-33.2V833.2z M1725.3,833.2h33.2v66.9h-33.2V833.2z M1625.9,833.2h33.2v66.9h-33.2
		V833.2z M1526.7,833.2h33.2v66.9h-33.2V833.2z M1381.5,836.1h33.2V903h-33.2V836.1L1381.5,836.1z M1264.3,836.1h33.2V903h-33.2
		V836.1L1264.3,836.1z M1146.4,836.1h33.2V903h-33.2V836.1L1146.4,836.1z M1000.2,834.8h33.2v66.9h-33.2V834.8z M901,834.8h33.2
		v66.9H901L901,834.8L901,834.8z M801,834.8h33.2v66.9H801L801,834.8L801,834.8z M700.7,834.8h33.2v66.9h-33.2V834.8z M1823.9,922.5
		h33.2v66.9h-33.2V922.5z M1725.3,922.5h33.2v66.9h-33.2V922.5z M1625.9,922.5h33.2v66.9h-33.2V922.5z M1526.7,922.5h33.2v66.9
		h-33.2V922.5z M1381.5,925.3h33.2v66.9h-33.2V925.3z M1264.3,925.3h33.2v66.9h-33.2V925.3z M1146.4,925.3h33.2v66.9h-33.2V925.3z
		 M1000.2,924.1h33.2V991h-33.2V924.1L1000.2,924.1z M901,924.1h33.2V991H901L901,924.1L901,924.1z M801,924.1h33.2V991H801
		L801,924.1L801,924.1z M700.7,924.1h33.2V991h-33.2V924.1L700.7,924.1z"/>
	<path class="st5" d="M730.1,1088.2H406.4c-14.1,0-25.5-11.4-25.5-25.5v-59.8c0-14.1,11.4-25.5,25.5-25.5h323.7
		c14.1,0,25.5,11.4,25.5,25.5v59.8C755.6,1076.8,744.2,1088.2,730.1,1088.2z M241,1075.4H-19.3c-14.1,0-25.5-11.4-25.5-25.5v-59.8
		c0-14.1,11.4-25.5,25.5-25.5H241c14.1,0,25.5,11.4,25.5,25.5v59.8C266.5,1063.9,255.1,1075.4,241,1075.4z M2494.3,1051.9h-260.2
		c-14.1,0-25.5-11.4-25.5-25.5v-59.7c0-14.1,11.4-25.5,25.5-25.5h260.2c14.1,0,25.5,11.4,25.5,25.5v59.8
		C2519.8,1040.5,2508.5,1051.9,2494.3,1051.9z"/>
	<path class="st4" d="M2639.9,1060.7h-159.7c-14.1,0-25.5-11.4-25.5-25.5v-42.8c0-14.1,11.4-25.5,25.5-25.5h159.7
		c14.1,0,25.5,11.4,25.5,25.5v42.8C2665.4,1049.2,2654.1,1060.7,2639.9,1060.7z M859.7,1096H645.1c-14.1,0-25.5-11.4-25.5-25.5
		v-42.8c0-14.1,11.4-25.5,25.5-25.5h214.6c14.1,0,25.5,11.4,25.5,25.5v42.8C885.2,1084.5,873.8,1096,859.7,1096L859.7,1096z
		 M1263.4,1096h-214.6c-14.1,0-25.5-11.4-25.5-25.5v-42.8c0-14.1,11.4-25.5,25.5-25.5h214.6c14.1,0,25.5,11.4,25.5,25.5v42.8
		C1288.9,1084.5,1277.6,1096,1263.4,1096z"/>
	<path class="st5" d="M1058.3,1103.8H843.7c-14.1,0-25.5-11.4-25.5-25.5v-59.8c0-14.1,11.4-25.5,25.5-25.5h214.6
		c14.1,0,25.5,11.4,25.5,25.5v59.8C1083.8,1092.4,1072.4,1103.8,1058.3,1103.8z"/>
	<path class="st4" d="M1711.1,1096h454.2c14.1,0,25.5-11.4,25.5-25.5v-42.8c0-14.1-11.4-25.5-25.5-25.5h-454.2
		c-14.1,0-25.5,11.4-25.5,25.5v42.8C1685.5,1084.5,1697,1096,1711.1,1096L1711.1,1096z M1337.3,1096H1552
		c14.1,0,25.5-11.4,25.5-25.5v-42.8c0-14.1-11.4-25.5-25.5-25.5h-214.6c-14.1,0-25.5,11.4-25.5,25.5v42.8
		C1311.8,1084.5,1323.2,1096,1337.3,1096z"/>
	<path class="st5" d="M1503.3,1103.8H1718c14.1,0,25.5-11.4,25.5-25.5v-59.8c0-14.1-11.4-25.5-25.5-25.5h-214.6
		c-14.1,0-25.5,11.4-25.5,25.5v59.8C1477.8,1092.4,1489.2,1103.8,1503.3,1103.8z M1393.1,1100h-206.6c-9.3,0-16.7-7.4-16.7-16.7
		v-40.9c0-9.3,7.4-16.7,16.7-16.7h206.6c9.3,0,16.7,7.4,16.7,16.7v40.9C1409.8,1092.5,1402.3,1100,1393.1,1100z"/>
	<g id="cloud-2">
		<path d="M673.8,668.2H280.1c-29.8,0-54-24.1-54-54c0-29.8,24.1-54,54-54h393.7c29.8,0,54,24.1,54,54
			C727.8,644,703.7,668.2,673.8,668.2L673.8,668.2z"/>
	</g>
</g>
<g id="Layer_2">
	<g id="cloud-1">
		<path d="M384.2,535.8H220.5c-16.7,0-30.3-13.5-30.3-30.3c0-16.7,13.5-30.3,30.3-30.3h163.7c16.7,0,30.3,13.5,30.3,30.3
			S400.9,535.8,384.2,535.8z"/>
	</g>
</g>
<g id="plane">
	<path class="st18" d="M-295.1,120.3h79.5c2.7,0,5.5-0.1,8.2-0.3l22.2-1.6c1.4-0.1,2.9-0.2,4.3-0.2h10.9c3.5,0,6.8,1.2,9.5,3.4
		l2.1,1.8l0.4,0.1c2.1,0.6,4,1.7,5.6,3.1l0.8,0.7c0.7,0.6,0.9,1.6,0.5,2.5l0,0c-0.2,0.4-0.6,0.8-1,1l-6.7,2.8
		c-3.3,1.4-6.8,2.4-10.3,2.9l0,0c-2.3,0.3-4.6,0.5-6.9,0.4l-10-0.3c-2.1-0.1-4.1,0.1-6.1,0.4l0,0c-2.1,0.4-4.3,0.5-6.5,0.4
		l-42.7-1.6l-6.3-0.4c-4.3-0.3-8.6-1-12.8-2l-35.2-9c-1.1-0.3-1.8-1.4-1.6-2.6l0,0C-297,121-296.2,120.3-295.1,120.3z"/>
	<g>
		<path class="st19" d="M-152.1,130.7c0.4-0.2,0.7-0.5,0.9-0.9c0.4-0.8,0.2-1.8-0.5-2.5l-0.8-0.7c-1.6-1.4-3.5-2.5-5.6-3.1l-0.4-0.1
			l-2.1-1.8c-2.7-2.2-6-3.4-9.5-3.4h-7.2c-1,3.6-5.2,9.4-22.8,9.4h-83.7l12.3,3.1H-152.1z"/>
		<path class="st20" d="M-267.3,131.8l6.8,1.7c4.2,1.1,8.5,1.7,12.8,2l6.3,0.4l42.7,1.6c2.2,0.1,4.3-0.1,6.5-0.4h0
			c2-0.3,4.1-0.5,6.1-0.4l10,0.3c2.3,0.1,4.6-0.1,6.9-0.4c3.5-0.5,7-1.5,10.3-2.9l4.4-1.9H-267.3z"/>
	</g>
	<path class="st21" d="M-266.1,121.9L-266.1,121.9c-5.1-1.9-9.9-4.8-14-8.3l-15.7-13.6h-8.6l10.2,21.7L-266.1,121.9z"/>
	<g>
		<path class="st19" d="M-295.8,100h-2.3l12.2,14.5c0.6,0.7,0.8,1.8,0.5,2.7c-0.3,1-1.2,1.7-2.3,1.9l-7.3,0.9l0.8,1.8l28,0.2
			c-5.1-1.9-9.9-4.8-14-8.3L-295.8,100z"/>
		<polygon class="st19" points="-266.1,121.9 -266.1,121.9 -266.1,121.9 		"/>
	</g>
	<polygon class="st22" points="-267,125.9 -283.3,124.7 -302.3,125.9 -302.3,127.4 -283.9,127 	"/>
	<path class="st22" d="M-206.5,140.3h-17.8c-1.1,0-2.1-0.9-2.1-2.1l0,0c0-1.1,0.9-2.1,2.1-2.1h17.8c1.1,0,2.1,0.9,2.1,2.1l0,0
		C-204.5,139.4-205.4,140.3-206.5,140.3z"/>
	<path class="st22" d="M-187.9,135.3h-66.6c-3.7,0-7-2.1-8.6-5.4l-3-6.3c-1.2-2.6,0.4-5.6,3.2-6.1l3-0.5c1.3-0.2,2.6,0.2,3.6,1.1
		l7.1,6.6c1.8,1.7,4.2,2.7,6.7,2.9l45.4,2.9C-193.5,130.7-190.2,132.5-187.9,135.3L-187.9,135.3z"/>
	<path class="st23" d="M-206.1,135.6v5.1c0,1.7-1.5,3-3.2,2.7l-13.7-2.3c-1.3-0.2-2.3-1.4-2.3-2.7V137c0-1.4,1.1-2.6,2.5-2.8
		l13.7-1.3C-207.5,132.7-206.1,134-206.1,135.6z"/>
	<path class="st22" d="M-228.7,140.4H-247c-1.1,0-2.1-0.9-2.1-2.1v0c0-1.1,0.9-2.1,2.1-2.1h18.2c1.1,0,2.1,0.9,2.1,2.1v0
		C-226.7,139.4-227.6,140.4-228.7,140.4z"/>
	<path class="st20" d="M-228,135.5v5.1c0,1.7-1.5,3-3.2,2.7l-13.7-2.3c-1.3-0.2-2.3-1.4-2.3-2.7v-1.5c0-1.4,1.1-2.6,2.5-2.8
		l13.7-1.3C-229.4,132.6-228,133.9-228,135.5z"/>
	<g>
		<path class="st24" d="M-160.6,121.6c-1.2-1-2.6-1.8-4-2.4h-5.9c-2.3,0-4.2,1.9-4.2,4.2h16.3L-160.6,121.6z"/>
	</g>
</g>
</svg>
