<?xml version="1.0" encoding="utf-8"?>
<!-- Generator: Adobe Illustrator 20.1.0, SVG Export Plug-In . SVG Version: 6.00 Build 0)  -->
<svg version="1.1" id="Layer_1" xmlns="http://www.w3.org/2000/svg" xmlns:xlink="http://www.w3.org/1999/xlink" x="0px" y="0px"
	 viewBox="0 0 2580 1133.7" style="enable-background:new 0 0 2580 1133.7;" xml:space="preserve">
<style type="text/css">
	.st0{fill:#B2D0DF;}
	.st1{fill:#87090C;}
	.st2{fill:#FFFFFF;}
	.st3{fill:#2C357A;}
	.st4{fill:#3C4221;}
	.st5{fill:#2E3A20;}
	.st6{fill:#F1F1F2;}
	.st7{fill:#687C40;}
	.st8{fill:#D0D2D3;}
	.st9{fill:#CACAC9;}
	.st10{fill:#BBBDBF;}
	.st11{fill:#E6E7E8;}
	.st12{fill:#A6A8AB;}
	.st13{fill:#D0D1D1;}
	.st14{fill:#BDBDBE;}
	.st15{fill:#DADBDB;}
	.st16{fill:#C6C7C8;}
	.st17{fill:#FFD154;}
	.st18{fill:#F2F2F2;}
	.st19{fill:#00B5FF;}
	.st20{fill:#CEEEF4;}
	.st21{fill:#E6E6E6;}
	.st22{fill:#B3B3B3;}
	.st23{fill:#B4CFD3;}
	.st24{fill:#4D4D4D;}
</style>
<g id="Layer_1_1_">
	<path class="st0" d="M-6.6-207.7H2582V874.7H-6.6V-207.7z"/>
	<g id="flag">
		<path class="st1" d="M1198.1,278.5h77.4v51.9h-77.4V278.5L1198.1,278.5z"/>
		<path class="st2" d="M1198.1,283h48.2v3.7h-48.2V283z M1198.1,291h48.2v3.7h-48.2V291z M1198.1,306.6h77.3v3.7h-77.3V306.6z
			 M1198.1,314.7h77.3v3.7h-77.3V314.7z M1198.1,322.6h77.3v3.7h-77.3V322.6z M1198.1,298.9h48.2v3.7h-48.2V298.9z"/>
		<path class="st3" d="M1246.2,278.5h29.4v24.4h-29.4V278.5z"/>
	</g>
	<path class="st4" d="M2045.4,743.7h-135.1c-8,0-14.6-6.5-14.6-14.6v-49.9c0-8,6.5-14.6,14.6-14.6h135.1c8,0,14.6,6.5,14.6,14.6
		v49.9C2060,737.2,2053.5,743.7,2045.4,743.7z"/>
	<path class="st5" d="M636.9,720.1h-73.2c-8,0-14.6-6.5-14.6-14.6v-60.7c0-8,6.5-14.6,14.6-14.6h73.2c8,0,14.6,6.5,14.6,14.6v60.7
		C651.5,713.6,645,720.1,636.9,720.1z"/>
	<path class="st4" d="M668.6,822.5H506.3c-8,0-14.6-6.5-14.6-14.6v-60.7c0-8,6.5-14.6,14.6-14.6h162.3c8,0,14.6,6.5,14.6,14.6v60.7
		C683.2,816,676.7,822.5,668.6,822.5z"/>
	<path class="st4" d="M649,755.9H513.5c-8,0-14.6-6.5-14.6-14.6v-37.6c0-8,6.5-14.6,14.6-14.6H649c8,0,14.6,6.5,14.6,14.6v37.6
		C663.6,749.4,657.1,755.9,649,755.9z"/>
	<path class="st5" d="M63.2,720.1H-10c-8,0-14.6-6.5-14.6-14.6v-60.7c0-8,6.5-14.6,14.6-14.6h73.2c8,0,14.6,6.5,14.6,14.6v60.7
		C77.7,713.6,71.2,720.1,63.2,720.1z"/>
	<path class="st4" d="M120.3,822.5H-42c-8,0-14.6-6.5-14.6-14.6v-60.7c0-8,6.5-14.6,14.6-14.6h162.3c8,0,14.6,6.5,14.6,14.6v60.7
		C134.8,816,128.3,822.5,120.3,822.5z"/>
	<path class="st4" d="M100.7,755.9H-34.8c-8,0-14.6-6.5-14.6-14.6v-37.6c0-8,6.5-14.6,14.6-14.6h135.5c8,0,14.6,6.5,14.6,14.6v37.6
		C115.3,749.4,108.7,755.9,100.7,755.9z"/>
	<path class="st5" d="M2042.2,701.4h-135.1c-8,0-14.6-6.5-14.6-14.6v-77.2c0-8,6.5-14.6,14.6-14.6h135.1c8,0,14.6,6.5,14.6,14.6
		v77.3C2056.7,694.9,2050.2,701.4,2042.2,701.4L2042.2,701.4z M2079.7,822.5h-197.3c-8,0-14.6-6.5-14.6-14.6v-77.2
		c0-8,6.5-14.6,14.6-14.6h197.3c8,0,14.6,6.5,14.6,14.6v77.2C2094.2,816,2087.7,822.5,2079.7,822.5z"/>
	<path class="st6" d="M1275.7,278.9l-1.4-0.3l1.4,141l3.5-1.2L1275.7,278.9z"/>
	<path class="st7" d="M-19.3,814.9h2611.1v323.6H-19.3V814.9L-19.3,814.9z"/>
	<path class="st8" d="M647.9,591.5H1907v255.9H647.9V591.5z"/>
	<path class="st9" d="M643.9,525.1h1264.9v50.8H643.9V525.1z"/>
	<path class="st10" d="M629.4,571l2.8,11.8l15.7,8.7h1261l15.6-8.7l3-11.8H629.4z"/>
	<path class="st8" d="M1059.8,455.5h440.8v63.2h-440.8V455.5z"/>
	<path class="st11" d="M1280.9,414.7l-240.8,97.2l3.4,10.3l17.5,28.4l437.1,1.3l19.1-29.7l5.8-12.7L1280.9,414.7z"/>
	<path class="st8" d="M1050.8,536.2l11.7,27.4h437.7l11.7-27.4H1050.8L1050.8,536.2z"/>
	<path class="st6" d="M1088.4,513.3h382.9l-192.1-71.5L1088.4,513.3z"/>
	<path class="st12" d="M1281.3,565.3h-213.9l43.9,43.1h338.6l43.9-43.1H1281.3z"/>
	<path class="st10" d="M1112.5,606.5h337.3v259.8h-337.3V606.5z"/>
	<path class="st13" d="M1140.7,601.8l-13.7,0.7l-9.8-0.7l-3.5,264.4h30.4L1140.7,601.8z"/>
	<path class="st14" d="M1143.9,607.3h-33.5c-3,0-5.4-2.4-5.4-5.4V593h41.9c1.4,0,2.4,1.1,2.4,2.4v6.5
		C1149.3,604.9,1146.9,607.3,1143.9,607.3z"/>
	<path class="st13" d="M1452,601.8l-13.7,0.7l-9.8-0.7l-3.6,264.4h30.5L1452,601.8z"/>
	<path class="st14" d="M1455.2,607.3h-33.5c-3,0-5.4-2.4-5.4-5.4v-6.5c0-1.4,1.1-2.4,2.4-2.4h41.9v8.9
		C1460.6,604.9,1458.1,607.3,1455.2,607.3z"/>
	<path class="st15" d="M1119.2,587.5l-13.7,0.6l-9.8-0.6l-3.5,264.3h30.4L1119.2,587.5z"/>
	<path class="st16" d="M1122.4,593h-33.5c-3,0-5.4-2.4-5.4-5.4v-8.9h41.9c1.4,0,2.4,1.1,2.4,2.4v6.5
		C1127.8,590.5,1125.4,593,1122.4,593z"/>
	<path class="st15" d="M1470.8,587.5l-13.6,0.6l-9.8-0.6l-3.6,264.3h30.4L1470.8,587.5z"/>
	<path class="st16" d="M1474.1,593h-33.5c-3,0-5.4-2.4-5.4-5.4v-6.5c0-1.4,1.1-2.4,2.4-2.4h41.9v8.9
		C1479.4,590.5,1477.1,593,1474.1,593z"/>
	<path class="st11" d="M1096.7,572.4l-13.6,0.6l-9.8-0.6l-3.6,264.3h30.5L1096.7,572.4z"/>
	<path class="st8" d="M1100,577.9h-33.5c-3,0-5.4-2.4-5.4-5.4v-8.9h44.2v8.9C1105.4,575.4,1102.9,577.9,1100,577.9L1100,577.9z"/>
	<path class="st11" d="M1224.7,572.4L1211,573l-9.8-0.6l-3.6,264.3h30L1224.7,572.4z"/>
	<path class="st8" d="M1227.9,577.9h-33.5c-3,0-5.4-2.4-5.4-5.4v-8.9h44.2v8.9C1233.3,575.4,1230.9,577.9,1227.9,577.9L1227.9,577.9
		z"/>
	<path class="st11" d="M1361.9,572.4l-13.7,0.6l-9.7-0.6l-3.6,264.3h30.9L1361.9,572.4L1361.9,572.4z"/>
	<path class="st8" d="M1365.2,577.9h-33.5c-3,0-5.4-2.4-5.4-5.4v-8.9h44.2v8.9C1370.5,575.4,1368.2,577.9,1365.2,577.9L1365.2,577.9
		z"/>
	<path class="st11" d="M1490.8,572.4l-13.6,0.6l-9.8-0.6l-3.6,264.3h30.9L1490.8,572.4z"/>
	<path class="st8" d="M1494.1,577.9h-33.5c-3,0-5.4-2.4-5.4-5.4v-8.9h44.2v8.9C1499.5,575.4,1497.1,577.9,1494.1,577.9L1494.1,577.9
		z"/>
	<circle class="st17" cx="1275" cy="270.2" r="8.5"/>
	<path class="st10" d="M1280.1,263.4c1.1,1.5,1.8,3.2,1.8,5.2c0,4.7-3.8,8.5-8.5,8.5c-1.9,0-3.7-0.6-5.2-1.8c1.6,2,4,3.4,6.8,3.4
		c4.7,0,8.5-3.8,8.5-8.5C1283.5,267.4,1282.1,265,1280.1,263.4L1280.1,263.4z"/>
	<g id="cloud-4">
		<path class="st11" d="M951,398.9H644.2c-16.7,0-30.3-13.5-30.3-30.3c0-16.7,13.5-30.3,30.3-30.3H951c16.7,0,30.3,13.5,30.3,30.3
			C981.3,385.3,967.8,398.9,951,398.9z"/>
	</g>
	<g id="cloud-8">
		<path d="M2417.7,482.1H2254c-16.7,0-30.3-13.5-30.3-30.3c0-16.7,13.5-30.3,30.3-30.3h163.7c16.7,0,30.3,13.5,30.3,30.3
			C2448.1,468.6,2434.6,482.1,2417.7,482.1z"/>
	</g>
	<g id="cloud-7">
		<path class="st6" d="M2057.3,270.1h-163.7c-16.7,0-30.3-13.5-30.3-30.3c0-16.7,13.5-30.3,30.3-30.3h163.7
			c16.7,0,30.3,13.5,30.3,30.3S2074,270.1,2057.3,270.1z"/>
	</g>
	<g id="cloud-6">
		<path class="st2" d="M1800.3,165.7h-163.7c-16.7,0-30.3-13.5-30.3-30.3c0-16.7,13.5-30.3,30.3-30.3h163.7
			c16.7,0,30.3,13.5,30.3,30.3C1830.6,152.1,1817,165.7,1800.3,165.7z"/>
	</g>
	<g id="cloud-5">
		<path class="st2" d="M1841.5,331.7h-362.9c-16.7,0-30.3-13.5-30.3-30.3c0-16.7,13.5-30.3,30.3-30.3h362.9
			c16.7,0,30.3,13.5,30.3,30.3C1871.7,318.2,1858.2,331.7,1841.5,331.7z"/>
	</g>
	<g id="cloud-9">
		<path class="st2" d="M2777.1,286h-362.9c-16.7,0-30.3-13.5-30.3-30.3c0-16.7,13.5-30.3,30.3-30.3h362.9
			c16.7,0,30.3,13.5,30.3,30.3C2807.4,272.4,2793.8,286,2777.1,286z"/>
	</g>
	<path class="st4" d="M2630.9,743.7h-135.1c-8,0-14.6-6.5-14.6-14.6v-49.9c0-8,6.5-14.6,14.6-14.6h135.1c8,0,14.6,6.5,14.6,14.6
		v49.9C2645.4,737.2,2638.9,743.7,2630.9,743.7z"/>
	<path class="st5" d="M2611.9,689h-135.1c-8,0-14.6-6.5-14.6-14.6v-77.2c0-8,6.5-14.6,14.6-14.6h135.1c8,0,14.6,6.5,14.6,14.6v77.2
		C2626.5,682.5,2620,689,2611.9,689z M2654.1,822.5h-197.3c-8,0-14.6-6.5-14.6-14.6v-77.2c0-8,6.5-14.6,14.6-14.6h197.3
		c8,0,14.6,6.5,14.6,14.6v77.2C2668.6,816,2662.1,822.5,2654.1,822.5z"/>
	<path class="st10" d="M1823.9,637.4h33.2v66.9h-33.2V637.4z M1725.3,637.4h33.2v66.9h-33.2V637.4z M1625.9,637.4h33.2v66.9h-33.2
		V637.4z M1526.7,637.4h33.2v66.9h-33.2V637.4z M1381.5,640.3h33.2v66.9h-33.2V640.3L1381.5,640.3z M1264.3,640.3h33.2v66.9h-33.2
		V640.3L1264.3,640.3z M1146.4,640.3h33.2v66.9h-33.2V640.3L1146.4,640.3z M1000.2,639h33.2v66.9h-33.2V639z M901,639h33.2v66.9H901
		V639L901,639z M801,639h33.2v66.9H801V639L801,639z M700.7,639h33.2v66.9h-33.2V639z M1823.9,726.7h33.2v66.9h-33.2V726.7z
		 M1725.3,726.7h33.2v66.9h-33.2V726.7z M1625.9,726.7h33.2v66.9h-33.2V726.7z M1526.7,726.7h33.2v66.9h-33.2V726.7z M1381.5,729.5
		h33.2v66.9h-33.2V729.5z M1264.3,729.5h33.2v66.9h-33.2V729.5z M1146.4,729.5h33.2v66.9h-33.2V729.5z M1000.2,728.3h33.2v66.9
		h-33.2V728.3L1000.2,728.3z M901,728.3h33.2v66.9H901V728.3L901,728.3z M801,728.3h33.2v66.9H801V728.3L801,728.3z M700.7,728.3
		h33.2v66.9h-33.2V728.3L700.7,728.3z"/>
	<path class="st5" d="M730.1,892.4H406.4c-14.1,0-25.5-11.4-25.5-25.5v-59.8c0-14.1,11.4-25.5,25.5-25.5h323.7
		c14.1,0,25.5,11.4,25.5,25.5v59.8C755.6,881,744.2,892.4,730.1,892.4z M241,879.6H-19.3c-14.1,0-25.5-11.4-25.5-25.5v-59.8
		c0-14.1,11.4-25.5,25.5-25.5H241c14.1,0,25.5,11.4,25.5,25.5v59.8C266.5,868.1,255.1,879.6,241,879.6z M2494.3,856.1h-260.2
		c-14.1,0-25.5-11.4-25.5-25.5v-59.7c0-14.1,11.4-25.5,25.5-25.5h260.2c14.1,0,25.5,11.4,25.5,25.5v59.8
		C2519.8,844.7,2508.5,856.1,2494.3,856.1z"/>
	<path class="st4" d="M2639.9,864.9h-159.7c-14.1,0-25.5-11.4-25.5-25.5v-42.8c0-14.1,11.4-25.5,25.5-25.5h159.7
		c14.1,0,25.5,11.4,25.5,25.5v42.8C2665.4,853.4,2654.1,864.9,2639.9,864.9z M859.7,900.2H645.1c-14.1,0-25.5-11.4-25.5-25.5v-42.8
		c0-14.1,11.4-25.5,25.5-25.5h214.6c14.1,0,25.5,11.4,25.5,25.5v42.8C885.2,888.7,873.8,900.2,859.7,900.2L859.7,900.2z
		 M1263.4,900.2h-214.6c-14.1,0-25.5-11.4-25.5-25.5v-42.8c0-14.1,11.4-25.5,25.5-25.5h214.6c14.1,0,25.5,11.4,25.5,25.5v42.8
		C1288.9,888.7,1277.6,900.2,1263.4,900.2z"/>
	<path class="st5" d="M1058.3,908H843.7c-14.1,0-25.5-11.4-25.5-25.5v-59.8c0-14.1,11.4-25.5,25.5-25.5h214.6
		c14.1,0,25.5,11.4,25.5,25.5v59.8C1083.8,896.6,1072.4,908,1058.3,908z"/>
	<path class="st4" d="M1711.1,900.2h454.2c14.1,0,25.5-11.4,25.5-25.5v-42.8c0-14.1-11.4-25.5-25.5-25.5h-454.2
		c-14.1,0-25.5,11.4-25.5,25.5v42.8C1685.5,888.7,1697,900.2,1711.1,900.2L1711.1,900.2z M1337.3,900.2H1552
		c14.1,0,25.5-11.4,25.5-25.5v-42.8c0-14.1-11.4-25.5-25.5-25.5h-214.6c-14.1,0-25.5,11.4-25.5,25.5v42.8
		C1311.8,888.7,1323.2,900.2,1337.3,900.2z"/>
	<path class="st5" d="M1503.3,908H1718c14.1,0,25.5-11.4,25.5-25.5v-59.8c0-14.1-11.4-25.5-25.5-25.5h-214.6
		c-14.1,0-25.5,11.4-25.5,25.5v59.8C1477.8,896.6,1489.2,908,1503.3,908z M1393.1,904.2h-206.6c-9.3,0-16.7-7.4-16.7-16.7v-40.9
		c0-9.3,7.4-16.7,16.7-16.7h206.6c9.3,0,16.7,7.4,16.7,16.7v40.9C1409.8,896.7,1402.3,904.2,1393.1,904.2z"/>
	<g id="cloud-2">
		<path d="M673.8,472.4H280.1c-29.8,0-54-24.1-54-54c0-29.8,24.1-54,54-54h393.7c29.8,0,54,24.1,54,54
			C727.8,448.2,703.7,472.4,673.8,472.4L673.8,472.4z"/>
	</g>
</g>
<g id="Layer_2">
	<g id="cloud-1">
		<path d="M384.2,340H220.5c-16.7,0-30.3-13.5-30.3-30.3c0-16.7,13.5-30.3,30.3-30.3h163.7c16.7,0,30.3,13.5,30.3,30.3
			S400.9,340,384.2,340z"/>
	</g>
</g>
<g id="plane">
	<path class="st18" d="M-295.1,60h79.5c2.7,0,5.5-0.1,8.2-0.3l22.2-1.6c1.4-0.1,2.9-0.2,4.3-0.2h10.9c3.5,0,6.8,1.2,9.5,3.4l2.1,1.8
		l0.4,0.1c2.1,0.6,4,1.7,5.6,3.1l0.8,0.7c0.7,0.6,0.9,1.6,0.5,2.5l0,0c-0.2,0.4-0.6,0.8-1,1l-6.7,2.8c-3.3,1.4-6.8,2.4-10.3,2.9l0,0
		c-2.3,0.3-4.6,0.5-6.9,0.4l-10-0.3c-2.1-0.1-4.1,0.1-6.1,0.4l0,0c-2.1,0.4-4.3,0.5-6.5,0.4l-42.7-1.6l-6.3-0.4
		c-4.3-0.3-8.6-1-12.8-2l-35.2-9c-1.1-0.3-1.8-1.4-1.6-2.6l0,0C-297,60.7-296.2,60-295.1,60z"/>
	<g>
		<path class="st19" d="M-152.1,70.4c0.4-0.2,0.7-0.5,0.9-0.9c0.4-0.8,0.2-1.8-0.5-2.5l-0.8-0.7c-1.6-1.4-3.5-2.5-5.6-3.1l-0.4-0.1
			l-2.1-1.8c-2.7-2.2-6-3.4-9.5-3.4h-7.2c-1,3.6-5.2,9.4-22.8,9.4h-83.7l12.3,3.1L-152.1,70.4L-152.1,70.4z"/>
		<path class="st20" d="M-267.3,71.5l6.8,1.7c4.2,1.1,8.5,1.7,12.8,2l6.3,0.4l42.7,1.6c2.2,0.1,4.3-0.1,6.5-0.4l0,0
			c2-0.3,4.1-0.5,6.1-0.4l10,0.3c2.3,0.1,4.6-0.1,6.9-0.4c3.5-0.5,7-1.5,10.3-2.9l4.4-1.9L-267.3,71.5L-267.3,71.5z"/>
	</g>
	<path class="st21" d="M-266.1,61.6L-266.1,61.6c-5.1-1.9-9.9-4.8-14-8.3l-15.7-13.6h-8.6l10.2,21.7L-266.1,61.6z"/>
	<g>
		<path class="st19" d="M-295.8,39.7h-2.3l12.2,14.5c0.6,0.7,0.8,1.8,0.5,2.7c-0.3,1-1.2,1.7-2.3,1.9l-7.3,0.9l0.8,1.8l28,0.2
			c-5.1-1.9-9.9-4.8-14-8.3L-295.8,39.7z"/>
		<path class="st19" d="M-266.1,61.6L-266.1,61.6L-266.1,61.6z"/>
	</g>
	<polygon class="st22" points="-267,65.6 -283.3,64.4 -302.3,65.6 -302.3,67.1 -283.9,66.7 	"/>
	<path class="st22" d="M-206.5,80h-17.8c-1.1,0-2.1-0.9-2.1-2.1l0,0c0-1.1,0.9-2.1,2.1-2.1h17.8c1.1,0,2.1,0.9,2.1,2.1l0,0
		C-204.5,79.1-205.4,80-206.5,80z"/>
	<path class="st22" d="M-187.9,75h-66.6c-3.7,0-7-2.1-8.6-5.4l-3-6.3c-1.2-2.6,0.4-5.6,3.2-6.1l3-0.5c1.3-0.2,2.6,0.2,3.6,1.1
		l7.1,6.6c1.8,1.7,4.2,2.7,6.7,2.9l45.4,2.9C-193.5,70.4-190.2,72.2-187.9,75L-187.9,75z"/>
	<path class="st23" d="M-206.1,75.3v5.1c0,1.7-1.5,3-3.2,2.7l-13.7-2.3c-1.3-0.2-2.3-1.4-2.3-2.7v-1.4c0-1.4,1.1-2.6,2.5-2.8
		l13.7-1.3C-207.5,72.4-206.1,73.7-206.1,75.3z"/>
	<path class="st22" d="M-228.7,80.1H-247c-1.1,0-2.1-0.9-2.1-2.1l0,0c0-1.1,0.9-2.1,2.1-2.1h18.2c1.1,0,2.1,0.9,2.1,2.1l0,0
		C-226.7,79.1-227.6,80.1-228.7,80.1z"/>
	<path class="st20" d="M-228,75.2v5.1c0,1.7-1.5,3-3.2,2.7l-13.7-2.3c-1.3-0.2-2.3-1.4-2.3-2.7v-1.5c0-1.4,1.1-2.6,2.5-2.8l13.7-1.3
		C-229.4,72.3-228,73.6-228,75.2z"/>
	<g>
		<path class="st24" d="M-160.6,61.3c-1.2-1-2.6-1.8-4-2.4h-5.9c-2.3,0-4.2,1.9-4.2,4.2h16.3L-160.6,61.3z"/>
	</g>
</g>
</svg>
